<?xml version="1.0" encoding="UTF-8"?>
<svg id="uuid-eeaccb78-f013-474e-bf57-a43c85d43771" data-name="Capa 1" xmlns="http://www.w3.org/2000/svg" viewBox="0 0 756.11 500">
  <defs>
    <style>
      .uuid-64dc36ba-9ea6-4f2c-aa04-4210498858d5 {
        fill: #fff;
        stroke-width: 0px;
      }
    </style>
  </defs>
  <g>
    <path class="uuid-64dc36ba-9ea6-4f2c-aa04-4210498858d5" d="M233.89,301.77l5.39-33.66h-11.71l2.15-13.47h11.71l3.5-21.67h18.44l-3.36,21.67h16.29l-2.15,13.47h-16.43l-5.25,33.66c-1.08,7,1.75,9.56,8.08,9.56,2.83,0,5.52-.68,7.13-1.35l-2.15,14.14c-2.83,1.08-7.27,1.75-10.9,1.75-15.22,0-23.16-8.62-20.74-24.1Z"/>
    <path class="uuid-64dc36ba-9ea6-4f2c-aa04-4210498858d5" d="M275.49,324.12l11.04-69.48h17.64l-1.48,11.98c4.04-8.08,10.77-13.19,21.14-13.19,1.35,0,2.56.14,3.5.4l-2.83,17.78c-1.35-.14-2.96-.27-4.71-.27-11.85,0-18.31,4.85-20.2,16.43l-5.66,36.35h-18.45Z"/>
    <path class="uuid-64dc36ba-9ea6-4f2c-aa04-4210498858d5" d="M326.24,288.98l.81-5.66c2.69-19.25,15.21-30.43,34.07-30.43,22.49,0,33.66,16.29,29.49,40.8h-46.05l-.4,1.88c-.14,10.37,4.85,16.03,13.06,16.03,7.41,0,11.85-3.77,13.33-9.43h18.45c-3.37,14.14-13.6,23.7-31.91,23.7-21.27,0-33.66-14.95-30.83-36.89ZM346.17,281.57h27.33v-.27c-.13-9.29-4.85-14.14-12.79-14.14s-12.39,4.44-14.41,13.2l-.14,1.21Z"/>
    <path class="uuid-64dc36ba-9ea6-4f2c-aa04-4210498858d5" d="M396.52,302.84c1.75-10.77,9.15-16.83,23.16-18.72l22.22-3.1.67-3.37c1.08-7.54-3.23-10.91-9.56-10.91-6.87,0-10.64,2.96-11.98,9.42h-17.5c2.69-14.67,12.93-23.29,30.43-23.29s28.81,9.96,26.26,26.53l-7.14,44.7h-17.1l.67-7.81c-4.44,5.93-11.18,9.56-20.2,9.56-12.39,0-22.08-9.02-19.93-23.02ZM438.66,301.23l1.21-7.68-16.7,2.15c-4.98.68-7.94,3.37-8.62,7.14-.94,6.06,3.37,9.15,8.75,9.15,8.35,0,13.87-4.31,15.35-10.77Z"/>
    <path class="uuid-64dc36ba-9ea6-4f2c-aa04-4210498858d5" d="M465.45,324.12l11.04-69.48h17.5l-.81,8.22c3.77-5.52,9.96-9.96,18.85-9.96,8.35,0,14.95,4.17,18.18,11.31,3.91-5.66,10.64-11.31,21-11.31,14.27,0,23.83,10.5,21,28.01l-7,43.22h-18.45l6.73-42.14c1.48-8.89-2.02-14.14-9.29-14.14-7.81,0-11.45,5.66-12.93,14.54l-6.73,41.74h-18.44l6.73-42.14c1.48-8.89-2.02-14.14-9.42-14.14-7.81,0-11.58,5.66-13.06,14.54l-6.46,41.74h-18.45Z"/>
    <path class="uuid-64dc36ba-9ea6-4f2c-aa04-4210498858d5" d="M607.08,254.64l-11.04,69.48h-18.45l11.04-69.48h18.44ZM608.96,245.48h-19.25l3.36-21.01h19.26l-3.37,21.01Z"/>
    <path class="uuid-64dc36ba-9ea6-4f2c-aa04-4210498858d5" d="M608.82,324.12l11.04-69.48h17.5l-.81,8.22c3.77-5.52,9.83-9.96,18.85-9.96,14.41,0,23.83,10.5,21,28.14l-7,43.09h-18.31l6.6-42.01c1.48-9.02-2.02-14.27-9.83-14.27-8.35,0-12.66,5.66-14.14,14.68l-6.46,41.6h-18.45Z"/>
    <path class="uuid-64dc36ba-9ea6-4f2c-aa04-4210498858d5" d="M681.25,327.48h18.85c.67,4.85,4.85,7.95,11.58,7.95,9.42,0,13.73-4.71,14.81-11.85l1.48-9.15c-3.91,4.85-10.23,8.48-18.99,8.48-16.02,0-26.66-14.27-23.83-35.01l.54-4.58c2.56-18.72,14.14-30.43,30.16-30.43,10.1,0,17.91,5.25,20.87,11.98l2.29-10.23h17.1l-10.77,67.59c-2.56,16.29-12.66,26.52-34.33,26.52-19.26,0-28.68-9.02-29.76-21.27ZM731.88,293.15l1.08-7.41c1.62-11.72-3.1-18.45-13.06-18.45-8.75,0-14.14,5.39-15.48,15.35l-1.08,7.41c-1.62,11.58,3.5,18.44,13.19,18.44,8.75,0,13.87-5.25,15.35-15.35Z"/>
  </g>
  <g>
    <path class="uuid-64dc36ba-9ea6-4f2c-aa04-4210498858d5" d="M233.89,428.78l5.39-33.66h-11.71l2.15-13.46h11.71l3.5-21.68h18.44l-3.36,21.68h16.29l-2.15,13.46h-16.43l-5.25,33.66c-1.08,7,1.75,9.56,8.08,9.56,2.83,0,5.52-.67,7.13-1.35l-2.15,14.14c-2.83,1.08-7.27,1.75-10.9,1.75-15.22,0-23.16-8.62-20.74-24.1Z"/>
    <path class="uuid-64dc36ba-9ea6-4f2c-aa04-4210498858d5" d="M278.99,424.74l6.87-43.09h18.45l-6.73,42.01c-1.48,9.02,2.02,14.14,9.29,14.14,8.21,0,12.39-5.65,13.73-14.54l6.6-41.6h18.45l-11.04,69.48h-17.64l.94-8.21c-3.64,5.52-9.69,9.96-18.85,9.96-13.6,0-22.89-10.5-20.06-28.14Z"/>
    <path class="uuid-64dc36ba-9ea6-4f2c-aa04-4210498858d5" d="M350.88,415.72l.67-5.25c2.56-18.85,14.14-30.57,30.03-30.57,9.56,0,16.83,4.58,20.2,10.91l6.19-39.31h18.58l-15.75,99.64h-17.1l.81-8.35c-3.77,5.52-10.5,10.1-20.06,10.1-16.02,0-26.79-13.73-23.56-37.16ZM397.6,422.18l1.21-8.35c1.62-12.25-3.37-19.52-13.06-19.52-8.89,0-14.14,5.52-15.48,16.29l-1.21,8.35c-1.62,12.25,3.5,19.52,13.2,19.52,8.89,0,14-5.52,15.35-16.29Z"/>
    <path class="uuid-64dc36ba-9ea6-4f2c-aa04-4210498858d5" d="M453.06,381.65l-11.04,69.48h-18.45l11.04-69.48h18.45ZM454.95,372.5h-19.25l3.37-21h19.25l-3.37,21Z"/>
    <path class="uuid-64dc36ba-9ea6-4f2c-aa04-4210498858d5" d="M458.04,415.99l.81-5.66c2.56-19.25,15.48-30.43,34.74-30.43,21.41,0,33.66,14.81,30.83,36.89l-.81,5.66c-2.56,19.25-15.49,30.43-34.74,30.43-21.27,0-33.66-14.81-30.83-36.89ZM504.9,422.18l1.21-8.35c1.62-12.39-3.1-19.52-13.06-19.52-8.75,0-14.14,5.65-15.48,16.29l-1.21,8.35c-1.62,12.25,3.5,19.52,13.2,19.52,8.89,0,14-5.52,15.35-16.29Z"/>
  </g>
  <path class="uuid-64dc36ba-9ea6-4f2c-aa04-4210498858d5" d="M258.49,85.63c-3.41,9.38-8.2,18.41-14.07,26.83,1.21-34.17-22.01-58.84-59.91-58.84s-79.04,24.67-102.7,58.84c.26-8.42,2.05-17.45,5.46-26.83C104.48,38.36,156.76,0,204.03,0s71.67,38.36,54.46,85.63Z"/>
  <path class="uuid-64dc36ba-9ea6-4f2c-aa04-4210498858d5" d="M188.56,387.62c-6.85,9.84-15.11,18.91-24.32,26.79-22.81,19.49-51.42,31.98-78.4,31.98s-46.49-12.49-55.12-31.98c-3.47-7.88-5.13-16.95-4.78-26.79-5.87,8.42-10.64,17.41-14.05,26.79-3.41,9.38-5.19,18.37-5.45,26.79-1.21,34.17,21.99,58.8,59.88,58.8s79.07-24.64,102.73-58.8c5.87-8.42,10.64-17.41,14.05-26.79,3.41-9.38,5.19-18.37,5.45-26.79Z"/>
  <path class="uuid-64dc36ba-9ea6-4f2c-aa04-4210498858d5" d="M200.58,302c-9.55-16.53-27.94-26.83-52.42-26.83-37.89,0-61.06-24.64-59.9-58.76-5.87,8.42-10.64,17.41-14.05,26.79-8.29,22.79-6.94,43.47,2,58.8,9.6,16.49,27.95,26.79,52.43,26.79,37.89,0,61.12,24.67,59.91,58.84,5.87-8.42,10.66-17.45,14.07-26.83,8.3-22.79,6.9-43.47-2.04-58.8Z"/>
  <path class="uuid-64dc36ba-9ea6-4f2c-aa04-4210498858d5" d="M194.13,198.04c-9.55-16.53-27.94-26.83-52.42-26.83-37.89,0-61.06-24.64-59.9-58.76-5.87,8.42-10.64,17.41-14.05,26.79-8.29,22.79-6.94,43.47,2,58.8,9.6,16.49,27.95,26.79,52.43,26.79,37.89,0,61.12,24.67,59.91,58.84,5.87-8.42,10.66-17.45,14.07-26.83,8.3-22.79,6.9-43.47-2.04-58.8Z"/>
  <path class="uuid-64dc36ba-9ea6-4f2c-aa04-4210498858d5" d="M264.94,189.58c-3.41,9.38-8.2,18.41-14.07,26.83,1.21-34.17-22.01-58.84-59.91-58.84s-79.04,24.67-102.7,58.84c.26-8.42,2.05-17.45,5.46-26.83,17.21-47.27,69.48-85.63,116.75-85.63s71.67,38.36,54.46,85.63Z"/>
  <path class="uuid-64dc36ba-9ea6-4f2c-aa04-4210498858d5" d="M182.11,283.67c-6.85,9.84-15.11,18.91-24.32,26.79-22.81,19.49-51.42,31.98-78.4,31.98s-46.49-12.49-55.12-31.98c-3.47-7.88-5.13-16.95-4.78-26.79-5.87,8.42-10.64,17.41-14.05,26.79-3.41,9.38-5.19,18.37-5.45,26.79-1.21,34.17,21.99,58.8,59.88,58.8s79.07-24.64,102.73-58.8c5.87-8.42,10.64-17.41,14.05-26.79,3.41-9.38,5.19-18.37,5.45-26.79Z"/>
</svg>