<?xml version="1.0" encoding="UTF-8"?>
<svg id="uuid-e6c5f851-8a3f-46aa-af23-be7fe2c082a8" data-name="Capa 1" xmlns="http://www.w3.org/2000/svg" viewBox="0 0 270.46 500">
  <defs>
    <style>
      .uuid-56bfa2fb-e60f-4ce8-816e-55b010d6fabb {
        fill: #fff;
        stroke-width: 0px;
      }
    </style>
  </defs>
  <path class="uuid-56bfa2fb-e60f-4ce8-816e-55b010d6fabb" d="M258.49,85.63c-3.41,9.38-8.2,18.41-14.07,26.83,1.21-34.17-22.01-58.84-59.91-58.84s-79.04,24.67-102.7,58.84c.26-8.42,2.05-17.45,5.46-26.83C104.48,38.36,156.76,0,204.03,0s71.67,38.36,54.46,85.63Z"/>
  <path class="uuid-56bfa2fb-e60f-4ce8-816e-55b010d6fabb" d="M194.13,198.04c-9.55-16.53-27.94-26.83-52.42-26.83-37.89,0-61.06-24.64-59.9-58.76-5.87,8.42-10.64,17.41-14.05,26.79-8.29,22.79-6.94,43.47,2,58.8,9.6,16.49,27.95,26.79,52.43,26.79,37.89,0,61.12,24.67,59.91,58.84,5.87-8.42,10.66-17.45,14.07-26.83,8.3-22.79,6.9-43.47-2.04-58.8Z"/>
  <path class="uuid-56bfa2fb-e60f-4ce8-816e-55b010d6fabb" d="M264.94,189.58c-3.41,9.38-8.2,18.41-14.07,26.83,1.21-34.17-22.01-58.84-59.91-58.84s-79.04,24.67-102.7,58.84c.26-8.42,2.05-17.45,5.46-26.83,17.21-47.27,69.48-85.63,116.75-85.63s71.67,38.36,54.46,85.63Z"/>
  <path class="uuid-56bfa2fb-e60f-4ce8-816e-55b010d6fabb" d="M188.56,387.62c-6.85,9.84-15.11,18.91-24.32,26.79-22.81,19.49-51.42,31.98-78.4,31.98s-46.49-12.49-55.12-31.98c-3.47-7.88-5.13-16.95-4.78-26.79-5.87,8.42-10.64,17.41-14.05,26.79-3.41,9.38-5.19,18.37-5.45,26.79-1.21,34.17,21.99,58.8,59.88,58.8s79.07-24.64,102.73-58.8c5.87-8.42,10.64-17.41,14.05-26.79,3.41-9.38,5.19-18.37,5.45-26.79Z"/>
  <path class="uuid-56bfa2fb-e60f-4ce8-816e-55b010d6fabb" d="M200.58,302c-9.55-16.53-27.94-26.83-52.42-26.83-37.89,0-61.06-24.64-59.9-58.76-5.87,8.42-10.64,17.41-14.05,26.79-8.29,22.79-6.94,43.47,2,58.8,9.6,16.49,27.95,26.79,52.43,26.79,37.89,0,61.12,24.67,59.91,58.84,5.87-8.42,10.66-17.45,14.07-26.83,8.3-22.79,6.9-43.47-2.04-58.8Z"/>
  <path class="uuid-56bfa2fb-e60f-4ce8-816e-55b010d6fabb" d="M182.11,283.67c-6.85,9.84-15.11,18.91-24.32,26.79-22.81,19.49-51.42,31.98-78.4,31.98s-46.49-12.49-55.12-31.98c-3.47-7.88-5.13-16.95-4.78-26.79-5.87,8.42-10.64,17.41-14.05,26.79-3.41,9.38-5.19,18.37-5.45,26.79-1.21,34.17,21.99,58.8,59.88,58.8s79.07-24.64,102.73-58.8c5.87-8.42,10.64-17.41,14.05-26.79,3.41-9.38,5.19-18.37,5.45-26.79Z"/>
</svg>